<svg width="256" height="256" viewBox="0 0 256 256" fill="none" xmlns="http://www.w3.org/2000/svg">
<path d="M161.328 205.168L194.268 127.563C212.508 84.5911 221.628 63.1053 212.288 53.2501C202.947 43.4148 183.441 54.0082 144.428 75.2147C136.353 79.6038 132.335 81.7983 128.004 81.7983C123.673 81.7983 119.636 79.6038 111.58 75.2147C72.5673 54.0082 53.0423 43.4148 43.7203 53.2699C34.3616 63.1053 43.5001 84.5911 61.7404 127.583L94.6794 205.168C109.066 239.043 116.26 256 128.004 256C139.748 256 146.942 239.063 161.328 205.168Z" fill="#6C5CE7"/>
<path fill-rule="evenodd" clip-rule="evenodd" d="M187.655 53.2959C199.511 25.1397 204.717 10.3017 197.838 3.06011C190.099 -5.07037 173.936 3.68678 141.611 21.2176L141.527 21.2633C134.893 24.861 131.576 26.6599 128.003 26.6599C124.415 26.6599 121.07 24.8458 114.395 21.2176C82.0698 3.68678 65.8918 -5.0704 58.168 3.07657C51.276 10.3027 56.4908 25.1367 68.3465 53.2981C79.0587 57.5414 93.1432 65.193 111.58 75.2147C119.636 79.6039 123.673 81.7983 128.004 81.7983C132.316 81.7983 136.32 79.6223 144.326 75.2701L144.427 75.2147C162.865 65.1928 176.945 57.5411 187.655 53.2959Z" fill="white"/>
</svg>
